<?xml version="1.0" encoding="UTF-8" standalone="no"?>
<!-- Generator: Adobe Illustrator 16.0.0, SVG Export Plug-In . SVG Version: 6.00 Build 0)  -->
<!DOCTYPE svg  PUBLIC '-//W3C//DTD SVG 1.1//EN'  'http://www.w3.org/Graphics/SVG/1.1/DTD/svg11.dtd'>
<svg id="Layer_1" xmlns="http://www.w3.org/2000/svg" xml:space="preserve" height="415px" viewBox="0 0 415 414.996" width="415px" version="1.1" y="0px" x="0px" xmlns:xlink="http://www.w3.org/1999/xlink" enable-background="new 0 0 415 414.996">
<path clip-rule="evenodd" d="m267.17 333.95v27.245h-119.33v-27.179c1.044-0.056 1.901-0.138 2.759-0.14 5.935-0.015 11.881-0.255 17.8 0.049 7.143 0.366 14.275-7.657 14.271-13.998-0.015-19.421-0.006-38.841-0.004-58.261 0.001-20.725 0.017-41.45 0-62.175-0.016-21.208-0.078-42.417-0.091-63.625-0.007-10.486 0.087-20.972 0.069-31.458-0.012-7.168-5.059-13.731-11.603-14.972-1.968-0.373-4.042-0.231-6.067-0.242-5.604-0.026-11.207-0.009-17.007-0.009v-28.198h119.13v28.162c-6.619 0-13.021 0.001-19.421-0.001-7.474-0.001-13.37 4.678-14.998 12-0.277 1.251-0.291 2.578-0.291 3.87 0.002 56.659 0.024 113.32 0.033 169.98 0.002 14.55-0.041 29.1-0.041 43.649 0.002 8.773 6.424 15.189 15.186 15.192 5.689 0.002 11.38-0.038 17.07-0.042 0.78-0.01 1.57 0.08 2.53 0.14z" fill-rule="evenodd"/>
</svg>
